<svg version="1.1" x="0px" y="0px" viewBox="64 -9 161.4 42">
<style type="text/css">
	.st0{fill:#90837A;}
	.st1{fill:#FFC50A;}
	.st2{fill:#F47E3A;}
	.st3{fill:#E12726;}
	.st4{fill:#76C3D4;}
	.st5{fill:#35657F;}
</style>
<g>
	<g>
		<path d="M65.6,12.5c0.4,0.7,0.9,1.2,1.6,1.6c0.7,0.4,1.4,0.5,2.2,0.5c0.4,0,0.7-0.1,1.1-0.2c0.2,0,0.5-0.2,0.8-0.4
			c0.3-0.2,0.5-0.4,0.7-0.7c0.2-0.3,0.3-0.6,0.3-1c0-0.6-0.2-1-0.6-1.3c-0.4-0.3-0.8-0.5-1.4-0.7c-0.6-0.2-1.2-0.3-1.8-0.4
			c-0.7-0.1-1.3-0.3-1.8-0.6c-0.5-0.3-1-0.6-1.4-1c-0.4-0.4-0.6-1.1-0.6-1.9c0-0.6,0.1-1.2,0.4-1.6c0.3-0.5,0.6-0.8,1-1.2
			c0.4-0.3,0.9-0.5,1.4-0.7c0.5-0.1,1-0.2,1.6-0.2c1.1,0,2,0.2,2.7,0.6c0.8,0.4,1.4,1,1.8,1.8L72,5.9c-0.3-0.6-0.7-1-1.2-1.3
			c-0.5-0.3-1.1-0.5-1.8-0.5c-0.3,0-0.6,0-0.9,0.1s-0.6,0.2-0.9,0.4c-0.3,0.2-0.5,0.4-0.6,0.7c-0.2,0.3-0.3,0.6-0.3,0.9
			c0,0.6,0.2,1,0.6,1.3c0.4,0.3,0.8,0.5,1.4,0.7c0.6,0.2,1.2,0.3,1.8,0.4c0.7,0.1,1.3,0.3,1.8,0.5c0.5,0.2,1,0.6,1.4,1.1
			c0.4,0.5,0.6,1.1,0.6,2c0,0.7-0.1,1.2-0.4,1.7c-0.2,0.5-0.6,0.9-1,1.2c-0.4,0.3-0.9,0.6-1.5,0.7c-0.6,0.2-1.1,0.3-1.8,0.3
			c-1.1,0-2.1-0.2-3-0.6c-0.9-0.4-1.6-1.1-2.1-2L65.6,12.5z"/>
		<path d="M82.2,4.5h-3.7v8.4c0,0.6,0.2,1,0.5,1.3c0.3,0.3,0.8,0.5,1.3,0.5c0.3,0,0.6,0,1-0.1c0.3-0.1,0.6-0.2,0.9-0.3l0.1,1.5
			c-0.3,0.1-0.7,0.2-1.1,0.3c-0.4,0.1-0.8,0.1-1.1,0.1c-0.6,0-1.1-0.1-1.5-0.3c-0.4-0.2-0.8-0.4-1-0.7c-0.3-0.3-0.4-0.6-0.6-1
			c-0.1-0.4-0.2-0.8-0.2-1.3V4.5H74V3h2.8v-3.7h1.7V3h3.7V4.5z"/>
		<path d="M93.8,10.4c0,0.6,0,1.2,0,1.7c0,0.5,0,1,0,1.4c0,0.4,0,0.8,0.1,1.2c0,0.4,0.1,0.7,0.1,1.1h-1.6c-0.1-0.6-0.2-1.3-0.2-2.1
			h-0.1c-0.5,0.8-1.1,1.4-1.8,1.8c-0.7,0.4-1.6,0.6-2.7,0.6c-0.6,0-1.1-0.1-1.6-0.2s-1-0.4-1.4-0.7c-0.4-0.3-0.8-0.7-1-1.2
			c-0.3-0.5-0.4-1.1-0.4-1.8c0-1,0.2-1.8,0.8-2.3c0.5-0.6,1.1-1,1.8-1.3c0.7-0.3,1.5-0.5,2.3-0.6c0.8-0.1,1.6-0.1,2.2-0.1h1.9V7.1
			c0-1.1-0.3-1.9-1-2.4C90.5,4.2,89.7,4,88.6,4c-1.5,0-2.8,0.5-3.9,1.4l-1-1.1c0.6-0.6,1.4-1,2.3-1.3c0.9-0.3,1.8-0.5,2.6-0.5
			c1.6,0,2.8,0.4,3.7,1.1c0.9,0.7,1.4,1.9,1.4,3.5L93.8,10.4L93.8,10.4z M90.4,9.4c-0.7,0-1.4,0-2,0.1c-0.7,0.1-1.2,0.2-1.8,0.5
			c-0.5,0.2-0.9,0.5-1.3,0.9c-0.3,0.4-0.5,0.8-0.5,1.4c0,0.4,0.1,0.7,0.3,1c0.2,0.3,0.4,0.6,0.7,0.8c0.3,0.2,0.6,0.3,0.9,0.4
			s0.7,0.2,1,0.2c0.9,0,1.6-0.1,2.2-0.4c0.6-0.3,1-0.6,1.4-1c0.3-0.4,0.6-0.9,0.7-1.4c0.1-0.5,0.2-1.1,0.2-1.6V9.4H90.4z"/>
		<path d="M99.4,19.8c-0.3,0.8-0.8,1.5-1.3,2c-0.6,0.5-1.3,0.7-2.2,0.7c-0.3,0-0.6,0-0.8-0.1c-0.3,0-0.5-0.1-0.8-0.2l0.2-1.6
			c0.2,0.1,0.5,0.1,0.7,0.2c0.2,0.1,0.5,0.1,0.8,0.1s0.6-0.1,0.8-0.2c0.2-0.1,0.4-0.3,0.6-0.5c0.2-0.2,0.3-0.4,0.4-0.7
			c0.1-0.3,0.2-0.5,0.3-0.8l1.2-3L94,3h1.9l4.3,10.8l4-10.8h1.8L99.4,19.8z"/>
		<path d="M107.1-2.1c0-0.4,0.1-0.6,0.4-0.9c0.2-0.2,0.5-0.4,0.9-0.4c0.4,0,0.6,0.1,0.9,0.4c0.2,0.2,0.4,0.5,0.4,0.9
			s-0.1,0.6-0.4,0.9c-0.3,0.2-0.6,0.3-1,0.3c-0.4,0-0.6-0.1-0.9-0.4C107.2-1.5,107.1-1.8,107.1-2.1z M107.5,3h1.7v12.8h-1.7V3z"/>
		<path d="M111,6.6c0-0.2,0-0.5,0-0.9c0-0.3,0-0.7,0-1c0-0.4,0-0.7,0-1s0-0.5,0-0.7h1.7c0,0.5,0,0.9,0,1.4c0,0.4,0,0.7,0.1,0.9h0.1
			c0.3-0.7,0.9-1.3,1.7-1.8c0.8-0.5,1.7-0.8,2.7-0.8c1,0,1.8,0.2,2.4,0.5c0.6,0.3,1.1,0.7,1.5,1.2c0.4,0.5,0.6,1.1,0.8,1.8
			c0.1,0.7,0.2,1.4,0.2,2.1v7.6h-1.7V8.3c0-0.5,0-1-0.1-1.5c-0.1-0.5-0.3-0.9-0.5-1.3c-0.2-0.4-0.6-0.7-1-0.9
			c-0.4-0.2-1-0.3-1.6-0.3s-1.2,0.1-1.7,0.3c-0.5,0.2-1,0.5-1.4,1c-0.4,0.4-0.7,1-0.9,1.6c-0.2,0.7-0.3,1.4-0.3,2.3v6.4h-2V6.6z"/>
		<path d="M137,15c0,1.6-0.2,2.9-0.7,3.9c-0.5,1-1,1.7-1.7,2.3c-0.7,0.5-1.4,0.9-2.2,1.1s-1.5,0.3-2.2,0.3s-1.3-0.1-1.9-0.2
			c-0.6-0.1-1.2-0.3-1.8-0.5c-0.6-0.2-1.1-0.5-1.5-0.8c-0.5-0.3-0.8-0.7-1.2-1.1l1.3-1.2c0.6,0.8,1.3,1.4,2.2,1.8
			c0.9,0.4,1.8,0.6,2.8,0.6c0.9,0,1.6-0.1,2.2-0.3c0.6-0.2,1.1-0.5,1.4-0.9c0.4-0.4,0.7-0.8,0.9-1.2c0.2-0.4,0.4-0.9,0.5-1.3
			c0.1-0.4,0.2-0.8,0.2-1.2c0-0.4,0-0.7,0-0.9v-1.8h-0.1c-0.5,0.8-1.1,1.4-2,1.8c-0.8,0.4-1.8,0.7-2.9,0.7c-0.9,0-1.8-0.2-2.7-0.5
			c-0.8-0.3-1.6-0.8-2.2-1.4c-0.6-0.6-1.1-1.3-1.5-2.1c-0.4-0.8-0.5-1.6-0.5-2.6c0-0.9,0.2-1.8,0.5-2.6c0.4-0.8,0.9-1.5,1.5-2.1
			c0.6-0.6,1.3-1.1,2.2-1.4c0.8-0.4,1.7-0.5,2.7-0.5c1.1,0,2.1,0.2,2.9,0.7c0.8,0.4,1.5,1.1,2,1.8h0.1V3h1.7V15z M135.4,9.2
			c0-0.7-0.1-1.4-0.4-2c-0.3-0.6-0.6-1.2-1.1-1.6c-0.5-0.5-1-0.8-1.6-1.1c-0.6-0.3-1.3-0.4-2-0.4c-0.7,0-1.4,0.1-2,0.4
			c-0.6,0.3-1.2,0.6-1.6,1.1c-0.5,0.5-0.8,1-1.1,1.6s-0.4,1.3-0.4,2s0.1,1.4,0.4,2c0.3,0.6,0.6,1.2,1.1,1.6c0.5,0.5,1,0.8,1.6,1.1
			c0.6,0.3,1.3,0.4,2,0.4c0.7,0,1.4-0.1,2-0.4c0.6-0.3,1.2-0.6,1.6-1.1c0.5-0.5,0.8-1,1.1-1.6C135.2,10.6,135.4,9.9,135.4,9.2z"/>
	</g>
	<g>
		<g>
			<path class="st0" d="M127.7,28.6c0.2,0,0.6-0.1,0.9-0.1c0.5,0,0.8,0.1,1,0.3c0.2,0.2,0.3,0.4,0.3,0.7c0,0.5-0.3,0.8-0.7,0.9l0,0
				c0.3,0.1,0.4,0.4,0.5,0.7c0.1,0.5,0.2,0.9,0.3,1h-0.5c-0.1-0.1-0.1-0.4-0.2-0.9c-0.1-0.5-0.3-0.7-0.7-0.7h-0.4v1.6h-0.5
				L127.7,28.6L127.7,28.6z M128.1,30.3h0.5c0.5,0,0.8-0.3,0.8-0.7c0-0.5-0.3-0.7-0.8-0.7c-0.2,0-0.4,0-0.5,0V30.3z"/>
			<path class="st0" d="M130.8,31c0,0.6,0.4,0.9,0.9,0.9c0.3,0,0.5-0.1,0.7-0.1l0.1,0.3c-0.2,0.1-0.5,0.2-0.9,0.2
				c-0.8,0-1.3-0.5-1.3-1.3c0-0.8,0.5-1.4,1.2-1.4c0.8,0,1.1,0.7,1.1,1.2c0,0.1,0,0.2,0,0.2S130.8,31,130.8,31z M132.2,30.6
				c0-0.3-0.1-0.8-0.7-0.8c-0.5,0-0.7,0.4-0.7,0.8H132.2z"/>
			<path class="st0" d="M134.7,32.2v-0.3l0,0c-0.1,0.2-0.4,0.4-0.8,0.4c-0.5,0-0.8-0.4-0.8-0.7c0-0.6,0.6-1,1.6-1v-0.1
				c0-0.2-0.1-0.6-0.6-0.6c-0.2,0-0.5,0.1-0.7,0.2l-0.1-0.3c0.2-0.1,0.5-0.2,0.9-0.2c0.8,0,1,0.5,1,1.1v1c0,0.2,0,0.4,0,0.6
				L134.7,32.2L134.7,32.2z M134.6,30.9c-0.5,0-1.1,0.1-1.1,0.6c0,0.3,0.2,0.5,0.4,0.5c0.3,0,0.6-0.2,0.6-0.4c0,0,0-0.1,0-0.2
				L134.6,30.9L134.6,30.9z"/>
			<path class="st0" d="M135.8,28.4h0.5v3.8h-0.5V28.4z"/>
			<path class="st0" d="M138.2,28.6c0.2,0,0.5-0.1,0.9-0.1c0.5,0,0.8,0.1,1,0.3c0.2,0.2,0.3,0.4,0.3,0.8c0,0.3-0.1,0.6-0.3,0.8
				c-0.2,0.3-0.6,0.4-1.1,0.4c-0.1,0-0.3,0-0.4,0v1.4h-0.5L138.2,28.6L138.2,28.6z M138.7,30.4c0.1,0,0.2,0,0.4,0
				c0.6,0,0.9-0.3,0.9-0.8s-0.3-0.7-0.9-0.7c-0.2,0-0.4,0-0.4,0V30.4z"/>
			<path class="st0" d="M143.3,30.9c0,1-0.7,1.4-1.3,1.4c-0.7,0-1.2-0.5-1.2-1.3c0-0.9,0.6-1.4,1.3-1.4
				C142.8,29.5,143.3,30.1,143.3,30.9z M141.2,30.9c0,0.6,0.3,1,0.8,1c0.5,0,0.8-0.4,0.8-1c0-0.4-0.2-1-0.8-1
				C141.5,29.9,141.2,30.4,141.2,30.9z"/>
			<path class="st0" d="M143.8,31.7c0.1,0.1,0.4,0.2,0.6,0.2c0.3,0,0.5-0.2,0.5-0.4s-0.1-0.3-0.5-0.5c-0.5-0.2-0.7-0.4-0.7-0.7
				c0-0.4,0.3-0.8,0.9-0.8c0.3,0,0.5,0.1,0.6,0.2V30c-0.1-0.1-0.3-0.2-0.5-0.2c-0.3,0-0.4,0.2-0.4,0.4s0.2,0.3,0.5,0.4
				c0.5,0.2,0.7,0.4,0.7,0.8c0,0.5-0.4,0.8-1,0.8c-0.3,0-0.5-0.1-0.7-0.2L143.8,31.7z"/>
			<path class="st0" d="M146,31.7c0.1,0.1,0.4,0.2,0.6,0.2c0.3,0,0.5-0.2,0.5-0.4s-0.1-0.3-0.5-0.5c-0.5-0.2-0.7-0.4-0.7-0.7
				c0-0.4,0.3-0.8,0.9-0.8c0.3,0,0.5,0.1,0.6,0.2l-0.1,0.3c-0.1-0.1-0.3-0.2-0.5-0.2c-0.3,0-0.4,0.2-0.4,0.4s0.2,0.3,0.5,0.4
				c0.5,0.2,0.7,0.4,0.7,0.8c0,0.5-0.4,0.8-1,0.8c-0.3,0-0.5-0.1-0.7-0.2L146,31.7z"/>
			<path class="st0" d="M148.7,28.9c0,0.2-0.1,0.3-0.3,0.3c-0.2,0-0.3-0.1-0.3-0.3s0.1-0.3,0.3-0.3
				C148.6,28.6,148.7,28.7,148.7,28.9z M148.2,32.2v-2.6h0.5v2.6H148.2z"/>
			<path class="st0" d="M149.4,32.2c0-0.2,0-0.4,0-0.7v-3.1h0.5V30l0,0c0.2-0.3,0.5-0.5,0.9-0.5c0.6,0,1.1,0.5,1.1,1.3
				c0,0.9-0.6,1.4-1.2,1.4c-0.4,0-0.7-0.1-0.9-0.5l0,0v0.4L149.4,32.2L149.4,32.2z M149.9,31.2c0,0.1,0,0.1,0,0.2
				c0.1,0.3,0.4,0.6,0.7,0.6c0.5,0,0.8-0.4,0.8-1c0-0.5-0.3-1-0.8-1c-0.3,0-0.6,0.2-0.7,0.6c0,0.1,0,0.1,0,0.2V31.2z"/>
			<path class="st0" d="M153,28.9c0,0.2-0.1,0.3-0.3,0.3c-0.2,0-0.3-0.1-0.3-0.3s0.1-0.3,0.3-0.3C152.9,28.6,153,28.7,153,28.9z
				 M152.5,32.2v-2.6h0.5v2.6H152.5z"/>
			<path class="st0" d="M153.7,28.4h0.5v3.8h-0.5V28.4z"/>
			<path class="st0" d="M155.5,28.9c0,0.2-0.1,0.3-0.3,0.3s-0.3-0.1-0.3-0.3s0.1-0.3,0.3-0.3C155.4,28.6,155.5,28.7,155.5,28.9z
				 M155,32.2v-2.6h0.5v2.6H155z"/>
			<path class="st0" d="M156.8,28.8v0.7h0.7V30h-0.7v1.4c0,0.3,0.1,0.5,0.4,0.5c0.1,0,0.2,0,0.3,0v0.4c-0.1,0-0.2,0.1-0.4,0.1
				c-0.2,0-0.4-0.1-0.5-0.2c-0.1-0.1-0.2-0.4-0.2-0.7V30H156v-0.4h0.4V29L156.8,28.8z"/>
			<path class="st0" d="M158.5,28.9c0,0.2-0.1,0.3-0.3,0.3s-0.3-0.1-0.3-0.3s0.1-0.3,0.3-0.3C158.4,28.6,158.5,28.7,158.5,28.9z
				 M158,32.2v-2.6h0.5v2.6H158z"/>
			<path class="st0" d="M159.5,31c0,0.6,0.4,0.9,0.9,0.9c0.3,0,0.5-0.1,0.7-0.1l0.1,0.3c-0.2,0.1-0.5,0.2-0.9,0.2
				c-0.8,0-1.3-0.5-1.3-1.3c0-0.8,0.5-1.4,1.2-1.4c0.8,0,1.1,0.7,1.1,1.2c0,0.1,0,0.2,0,0.2S159.5,31,159.5,31z M160.9,30.6
				c0-0.3-0.1-0.8-0.7-0.8c-0.5,0-0.7,0.4-0.7,0.8H160.9z"/>
			<path class="st0" d="M161.9,31.7c0.1,0.1,0.4,0.2,0.6,0.2c0.3,0,0.5-0.2,0.5-0.4s-0.1-0.3-0.5-0.5c-0.5-0.2-0.7-0.4-0.7-0.7
				c0-0.4,0.3-0.8,0.9-0.8c0.3,0,0.5,0.1,0.6,0.2V30c-0.1-0.1-0.3-0.2-0.5-0.2c-0.3,0-0.4,0.2-0.4,0.4s0.2,0.3,0.5,0.4
				c0.5,0.2,0.7,0.4,0.7,0.8c0,0.5-0.4,0.8-1,0.8c-0.3,0-0.5-0.1-0.7-0.2V31.7z"/>
			<path class="st0" d="M165.3,32.2V30h-0.4v-0.4h0.4v-0.1c0-0.4,0.1-0.7,0.3-0.9c0.2-0.2,0.4-0.2,0.6-0.2c0.2,0,0.3,0,0.4,0.1
				l-0.1,0.4c-0.1,0-0.2-0.1-0.3-0.1c-0.4,0-0.5,0.4-0.5,0.8v0.1h0.6V30h-0.6v2.2H165.3z"/>
			<path class="st0" d="M166.8,30.4c0-0.3,0-0.6,0-0.8h0.4v0.5l0,0c0.1-0.3,0.4-0.6,0.7-0.6c0.1,0,0.1,0,0.1,0V30c0,0-0.1,0-0.2,0
				c-0.3,0-0.6,0.3-0.6,0.6c0,0.1,0,0.1,0,0.2v1.4h-0.5L166.8,30.4L166.8,30.4z"/>
			<path class="st0" d="M170.9,30.9c0,1-0.7,1.4-1.3,1.4c-0.7,0-1.2-0.5-1.2-1.3c0-0.9,0.6-1.4,1.3-1.4
				C170.4,29.5,170.9,30.1,170.9,30.9z M168.8,30.9c0,0.6,0.3,1,0.8,1c0.5,0,0.8-0.4,0.8-1c0-0.4-0.2-1-0.8-1
				C169,29.9,168.8,30.4,168.8,30.9z"/>
			<path class="st0" d="M171.5,30.3c0-0.3,0-0.5,0-0.7h0.4V30l0,0c0.1-0.2,0.4-0.5,0.8-0.5s0.6,0.2,0.7,0.5l0,0
				c0.1-0.1,0.2-0.3,0.3-0.3c0.2-0.1,0.3-0.2,0.6-0.2c0.3,0,0.9,0.2,0.9,1.1v1.5h-0.5v-1.5c0-0.5-0.2-0.8-0.6-0.8
				c-0.3,0-0.5,0.2-0.6,0.4c0,0.1,0,0.2,0,0.2V32H173v-1.6c0-0.4-0.2-0.7-0.5-0.7s-0.5,0.2-0.6,0.5c0,0.1,0,0.2,0,0.2V32h-0.5
				L171.5,30.3L171.5,30.3z"/>
		</g>
		<path class="st0" d="M197.8,29.1c0-0.5-0.3-0.9-0.8-0.9h-0.4V30h0.4C197.5,30,197.8,29.6,197.8,29.1 M192.6,29.1
			c0-0.5-0.2-0.9-0.9-0.9h-0.3V30h0.3C192.3,30,192.6,29.6,192.6,29.1 M187.2,30.1l-0.5-1.4l-0.5,1.4c0,0,0.3,0,0.5,0
			S187.2,30.1,187.2,30.1 M182.8,30.2l-0.5-1.5l-0.5,1.4c0.1,0,0.2,0,0.3,0C182.5,30.1,182.8,30.2,182.8,30.2 M199.6,29.1
			c0,1-0.8,1.7-2.2,1.7h-0.8v1.4h-3.7l-1.5-1.9v1.9h-3.5l-0.4-1.1c0,0-0.4-0.1-0.9-0.1s-0.9,0.1-0.9,0.1l-0.4,1.1h-1.8l-0.3-0.8
			c0.4,0.1,0.8,0.3,0.9,0.4l0.1-0.2c-0.3-0.2-1-0.5-2.1-0.5c-0.8,0-1.4,0.2-2.3,0.2c-1.4,0-2.4-0.7-2.5-0.7l0.4-0.9
			c0.1,0.1,1,0.7,2.1,0.7c0.2,0,0.3,0,0.5,0l1.2-2.9h0.2h1h0.8l1.2,3l1.2-3h2l1.7,4.5v-4.5h2.4c1.6,0,2.4,0.7,2.4,1.7
			c0,1-0.8,1.3-1,1.4l1.4,1.5v-4.6h2.6C198.8,27.4,199.6,28.1,199.6,29.1 M181.3,31.3L181.3,31.3l-0.3,0.9l0,0h-1.3l0,0l0.3-0.8l0,0
			l0,0C180.1,31.4,180.7,31.4,181.3,31.3L181.3,31.3z"/>
		<path class="st0" d="M200,27.8L200,27.8c0.1,0,0.2,0,0.2-0.1c0,0,0-0.1-0.1-0.1c0,0,0,0-0.1,0L200,27.8L200,27.8z M200,28.1
			L200,28.1l-0.1-0.5c0,0,0.1,0,0.2,0c0.1,0,0.1,0,0.2,0l0.1,0.1c0,0.1,0,0.1-0.1,0.1l0,0l0.1,0.1c0,0.1,0,0.1,0,0.1h-0.1v-0.1
			c0-0.1,0-0.1-0.1-0.1H200V28.1z M200.1,27.4c-0.2,0-0.4,0.2-0.4,0.4s0.2,0.4,0.4,0.4s0.4-0.2,0.4-0.4
			C200.5,27.6,200.3,27.4,200.1,27.4L200.1,27.4z M200.1,27.4c0.3,0,0.5,0.2,0.5,0.5c0,0.3-0.2,0.5-0.5,0.5c-0.3,0-0.5-0.2-0.5-0.5
			C199.6,27.6,199.8,27.4,200.1,27.4L200.1,27.4z"/>
	</g>
	<g>
		<path class="st1" d="M140.7,17.2c0.5,1,1.3,1.8,2.3,2.3s2.1,0.8,3.2,0.8c0.5,0,1-0.1,1.5-0.2c0.5-0.2,1-0.4,1.4-0.7
			c0.4-0.3,0.7-0.7,1-1.1s0.4-0.9,0.4-1.4c0-0.9-0.3-1.5-0.8-1.9c-0.6-0.4-1.2-0.8-2.1-1c-0.8-0.2-1.7-0.5-2.7-0.6
			c-1-0.2-1.9-0.4-2.7-0.8c-0.8-0.4-1.5-0.9-2-1.5c-0.6-0.6-0.8-1.6-0.8-2.8c0-0.9,0.2-1.7,0.6-2.4s0.9-1.2,1.5-1.7
			c0.6-0.4,1.3-0.8,2.1-1c0.8-0.2,1.5-0.3,2.3-0.3c1.5,0,2.9,0.3,4,0.9c1.1,0.6,2,1.5,2.6,2.7l-2.2,1.3c-0.5-0.9-1-1.5-1.7-2
			c-0.7-0.5-1.6-0.7-2.7-0.7c-0.4,0-0.9,0.1-1.4,0.2c-0.5,0.1-0.9,0.3-1.3,0.6c-0.4,0.2-0.7,0.6-1,0.9c-0.3,0.4-0.4,0.8-0.4,1.3
			c0,0.8,0.3,1.5,0.8,1.9c0.6,0.4,1.2,0.7,2,1c0.8,0.2,1.7,0.4,2.7,0.6s1.9,0.4,2.7,0.8c0.8,0.4,1.5,0.9,2.1,1.6s0.8,1.7,0.8,2.9
			c0,1-0.2,1.8-0.5,2.5c-0.4,0.7-0.9,1.3-1.5,1.8c-0.6,0.5-1.4,0.9-2.2,1.1c-0.8,0.2-1.7,0.4-2.6,0.4c-1.6,0-3.1-0.3-4.4-0.9
			c-1.3-0.6-2.4-1.6-3.1-2.9L140.7,17.2z"/>
		<path class="st2" d="M155.1-8.6h2.4V6.5h0.1c0.5-1,1.3-1.9,2.4-2.7c1.1-0.7,2.5-1.1,4-1.1s2.7,0.2,3.6,0.7s1.6,1.1,2.2,1.8
			c0.5,0.7,0.9,1.6,1.1,2.6s0.3,2,0.3,3V22h-2.4V11c0-0.8-0.1-1.5-0.2-2.2c-0.1-0.7-0.4-1.4-0.7-1.9c-0.3-0.6-0.8-1-1.4-1.4
			c-0.6-0.3-1.4-0.5-2.4-0.5c-0.9,0-1.7,0.2-2.5,0.5c-0.8,0.3-1.5,0.8-2.1,1.4c-0.6,0.6-1,1.4-1.4,2.4c-0.3,1-0.5,2.1-0.5,3.4v9.4
			h-2.4L155.1-8.6L155.1-8.6z"/>
		<path class="st3" d="M188.4,14.1c0,0.9,0,1.7,0,2.5c0,0.7,0,1.4,0.1,2c0.1,0.6,0.1,1.2,0.1,1.7s0.1,1.1,0.2,1.6h-2.3
			c-0.2-0.9-0.2-1.9-0.2-3h-0.1c-0.7,1.2-1.6,2.1-2.6,2.7c-1,0.6-2.4,0.9-4,0.9c-0.8,0-1.6-0.1-2.4-0.3c-0.8-0.2-1.5-0.5-2.1-1
			c-0.6-0.4-1.1-1-1.5-1.7c-0.4-0.7-0.6-1.6-0.6-2.6c0-1.4,0.4-2.6,1.1-3.4c0.7-0.8,1.6-1.5,2.7-1.9c1.1-0.4,2.2-0.7,3.4-0.8
			c1.2-0.1,2.3-0.2,3.2-0.2h2.8V9.5c0-1.6-0.5-2.8-1.5-3.5c-1-0.7-2.3-1.1-3.8-1.1c-2.2,0-4.1,0.7-5.7,2.1l-1.4-1.7
			c0.9-0.9,2-1.5,3.3-2c1.3-0.4,2.6-0.7,3.8-0.7c2.3,0,4.1,0.5,5.4,1.6c1.4,1.1,2,2.8,2,5.2L188.4,14.1L188.4,14.1z M183.5,12.5
			c-1,0-2,0.1-3,0.2c-1,0.1-1.8,0.4-2.6,0.7c-0.8,0.3-1.4,0.8-1.8,1.3c-0.5,0.5-0.7,1.2-0.7,2c0,0.6,0.1,1.1,0.4,1.5
			c0.3,0.4,0.6,0.8,1,1.1c0.4,0.3,0.9,0.5,1.4,0.6c0.5,0.1,1,0.2,1.5,0.2c1.3,0,2.4-0.2,3.2-0.6c0.8-0.4,1.5-0.9,2-1.5
			c0.5-0.6,0.8-1.3,1-2.1c0.2-0.8,0.3-1.5,0.3-2.3v-1.3h-2.7V12.5z"/>
		<path class="st4" d="M191.1,8.5c0-0.4,0-0.8,0-1.3s0-1-0.1-1.5c0-0.5,0-1-0.1-1.4c0-0.4,0-0.8,0-1h2.4c0,0.7,0,1.4,0.1,2
			c0,0.6,0,1.1,0.1,1.3c0.6-1.1,1.4-2,2.4-2.7c1-0.7,2.2-1.1,3.6-1.1c0.2,0,0.5,0,0.7,0.1c0.2,0,0.5,0.1,0.7,0.1l-0.3,2.4
			c-0.3-0.1-0.6-0.2-0.9-0.2c-1.1,0-2,0.2-2.7,0.5c-0.8,0.3-1.4,0.8-1.9,1.4s-0.9,1.3-1.1,2.1c-0.2,0.8-0.4,1.7-0.4,2.6V22h-2.4
			L191.1,8.5L191.1,8.5z"/>
		<path class="st5" d="M202.3,3.2h2.4v3.3h0.1c0.4-0.6,0.9-1.2,1.4-1.7c0.6-0.5,1.2-0.9,1.8-1.2c0.7-0.3,1.4-0.5,2.1-0.7
			c0.7-0.2,1.4-0.2,2.2-0.2c1.4,0,2.8,0.2,4,0.7c1.2,0.5,2.2,1.2,3.1,2.1s1.6,1.9,2,3.1c0.5,1.2,0.7,2.5,0.7,4c0,1.4-0.2,2.8-0.7,4
			s-1.2,2.2-2,3.1c-0.9,0.9-1.9,1.6-3.1,2c-1.2,0.5-2.5,0.7-4,0.7c-0.7,0-1.4-0.1-2.2-0.2c-0.7-0.1-1.4-0.4-2.1-0.7
			c-0.7-0.3-1.3-0.7-1.8-1.2c-0.6-0.5-1-1-1.4-1.7h-0.1V32h-2.4V3.2z M204.5,12.6c0,1.1,0.2,2.1,0.6,3c0.4,0.9,1,1.7,1.7,2.4
			c0.7,0.7,1.5,1.2,2.5,1.6c0.9,0.4,2,0.6,3.1,0.6s2.2-0.2,3.1-0.6c0.9-0.4,1.7-1,2.4-1.6c0.6-0.7,1.1-1.5,1.5-2.4
			c0.3-0.9,0.5-1.9,0.5-3s-0.2-2.1-0.5-3c-0.3-0.9-0.8-1.7-1.5-2.4c-0.6-0.7-1.4-1.2-2.4-1.6c-0.9-0.4-1.9-0.6-3.1-0.6
			c-1.1,0-2.1,0.2-3.1,0.6c-0.9,0.4-1.8,1-2.5,1.6c-0.7,0.7-1.3,1.5-1.7,2.4C204.7,10.5,204.5,11.5,204.5,12.6z"/>
	</g>
	<g>
		<path class="st5" d="M221.4,3.4h-0.7V3h1.9v0.4h-0.7v2h-0.4L221.4,3.4L221.4,3.4z"/>
		<path class="st5" d="M222.8,3.1h0.6l0.6,1.7l0.6-1.7h0.6v2.4H225v-2l0,0l-0.7,2H224l-0.7-2l0,0v2h-0.4L222.8,3.1L222.8,3.1z"/>
	</g>
</g>
<image src="app/assets/images/aarp-logo.png" xlink:href="">
</svg>
