<?xml version="1.0" encoding="utf-8"?>
<!-- Generator: Adobe Illustrator 18.0.0, SVG Export Plug-In . SVG Version: 6.00 Build 0)  -->
<!DOCTYPE svg PUBLIC "-//W3C//DTD SVG 1.1//EN" "http://www.w3.org/Graphics/SVG/1.1/DTD/svg11.dtd">
<svg version="1.1" id="Layer_1" xmlns="http://www.w3.org/2000/svg" xmlns:xlink="http://www.w3.org/1999/xlink" x="0px" y="0px"
	 viewBox="0 39.5 176.5 36.9" enable-background="new 0 39.5 176.5 36.9" xml:space="preserve">
<g>
	<g>
		<defs>
			<rect id="SVGID_1_" y="39.5" width="176" height="36.9"/>
		</defs>
		<clipPath id="SVGID_2_">
			<use xlink:href="#SVGID_1_"  overflow="visible"/>
		</clipPath>
		<path clip-path="url(#SVGID_2_)" fill="#FFFFFF" d="M37.8,72.2C36.5,58.8,29.4,47,18.9,39.5l0,0C8.4,47,1.2,58.8,0,72.2l0,0
			C12.3,78,26.2,77.6,37.8,72.2L37.8,72.2z"/>
	</g>
	<g>
		<defs>
			<rect id="SVGID_3_" y="39.5" width="176" height="36.9"/>
		</defs>
		<clipPath id="SVGID_4_">
			<use xlink:href="#SVGID_3_"  overflow="visible"/>
		</clipPath>
		<polygon clip-path="url(#SVGID_4_)" fill="#004B8D" points="73.5,68.8 74.6,68.8 74.6,73.7 73.3,73.7 73.3,70.7 72.1,72.2 
			71.8,72.2 70.5,70.7 70.5,73.7 69.4,73.7 69.4,68.8 70.4,68.8 71.9,70.7 		"/>
	</g>
	<g>
		<defs>
			<rect id="SVGID_5_" y="39.5" width="176" height="36.9"/>
		</defs>
		<clipPath id="SVGID_6_">
			<use xlink:href="#SVGID_5_"  overflow="visible"/>
		</clipPath>
		<polygon clip-path="url(#SVGID_6_)" fill="#004B8D" points="85.3,73.7 81.6,73.7 81.6,68.8 85.2,68.8 85.2,69.8 82.9,69.8 
			82.9,70.8 85.1,70.8 85.1,71.7 82.9,71.7 82.9,72.8 85.3,72.8 		"/>
	</g>
	<g>
		<defs>
			<rect id="SVGID_7_" y="39.5" width="176" height="36.9"/>
		</defs>
		<clipPath id="SVGID_8_">
			<use xlink:href="#SVGID_7_"  overflow="visible"/>
		</clipPath>
		<path clip-path="url(#SVGID_8_)" fill="#004B8D" d="M94.4,68.8c1.7,0,2.7,1.1,2.7,2.4c0,1.4-0.9,2.4-2.8,2.4h-2v-4.9L94.4,68.8
			L94.4,68.8z M93.4,72.8h0.8c1.2,0,1.6-0.8,1.6-1.6c0-0.8-0.4-1.6-1.6-1.6h-0.7L93.4,72.8L93.4,72.8z"/>
	</g>
	<g>
		<defs>
			<rect id="SVGID_9_" y="39.5" width="176" height="36.9"/>
		</defs>
		<clipPath id="SVGID_10_">
			<use xlink:href="#SVGID_9_"  overflow="visible"/>
		</clipPath>
		<rect x="104" y="68.8" clip-path="url(#SVGID_10_)" fill="#004B8D" width="1.2" height="4.9"/>
	</g>
	<g>
		<defs>
			<rect id="SVGID_11_" y="39.5" width="176" height="36.9"/>
		</defs>
		<clipPath id="SVGID_12_">
			<use xlink:href="#SVGID_11_"  overflow="visible"/>
		</clipPath>
		<path clip-path="url(#SVGID_12_)" fill="#004B8D" d="M116.9,73.3c-0.7,0.3-1.2,0.5-1.9,0.5c-1.9,0-2.8-1.2-2.8-2.5
			c0-1.3,1.1-2.5,2.9-2.5c0.7,0,1.2,0.2,1.7,0.4v1c-0.5-0.3-1.1-0.5-1.7-0.5c-1,0-1.7,0.6-1.7,1.5c0,0.9,0.7,1.5,1.7,1.5
			c0.7,0,1.1-0.2,1.7-0.5C116.9,72.2,116.9,73.3,116.9,73.3z"/>
	</g>
	<g>
		<defs>
			<rect id="SVGID_13_" y="39.5" width="176" height="36.9"/>
		</defs>
		<clipPath id="SVGID_14_">
			<use xlink:href="#SVGID_13_"  overflow="visible"/>
		</clipPath>
		<rect x="123.8" y="68.8" clip-path="url(#SVGID_14_)" fill="#004B8D" width="1.2" height="4.9"/>
	</g>
	<g>
		<defs>
			<rect id="SVGID_15_" y="39.5" width="176" height="36.9"/>
		</defs>
		<clipPath id="SVGID_16_">
			<use xlink:href="#SVGID_15_"  overflow="visible"/>
		</clipPath>
		<polygon clip-path="url(#SVGID_16_)" fill="#004B8D" points="137.1,73.7 136.1,73.7 133.5,70.6 133.5,73.7 132.2,73.7 132.2,68.8 
			133.3,68.8 136,71.8 136,68.8 137.1,68.8 		"/>
	</g>
	<g>
		<defs>
			<rect id="SVGID_17_" y="39.5" width="176" height="36.9"/>
		</defs>
		<clipPath id="SVGID_18_">
			<use xlink:href="#SVGID_17_"  overflow="visible"/>
		</clipPath>
		<polygon clip-path="url(#SVGID_18_)" fill="#004B8D" points="147.8,73.7 144.3,73.7 144.3,68.8 147.8,68.8 147.8,69.8 145.5,69.8 
			145.5,70.8 147.7,70.8 147.7,71.7 145.5,71.7 145.5,72.8 147.8,72.8 		"/>
	</g>
	<g>
		<defs>
			<rect id="SVGID_19_" y="39.5" width="176" height="36.9"/>
		</defs>
		<clipPath id="SVGID_20_">
			<use xlink:href="#SVGID_19_"  overflow="visible"/>
		</clipPath>
		<path clip-path="url(#SVGID_20_)" fill="#004B8D" d="M45.8,46c0-1.2-0.2-1.2-1-1.3c-0.9-0.1-1.1-0.1-1.1-0.4
			c0-0.2,0.2-0.3,0.6-0.3c0.5,0,1.4,0.1,2.5,0.1c1.3,0,1.7-0.1,2.1-0.1c0.4,0,0.5,0.1,0.5,0.3c0,0.4-0.3,0.2-1.1,0.4
			c-0.8,0.2-0.8,0.3-0.8,4.7v9.1c0,4.7-2.2,7.4-4.7,7.4c-1.1,0-1.6-0.7-1.6-1.4c0-0.7,0.4-1.1,1-1.1c1.2,0,0.7,1.6,1.5,1.6
			c1,0,1.9-1.7,1.9-4.4V46H45.8z"/>
	</g>
	<g>
		<defs>
			<rect id="SVGID_21_" y="39.5" width="176" height="36.9"/>
		</defs>
		<clipPath id="SVGID_22_">
			<use xlink:href="#SVGID_21_"  overflow="visible"/>
		</clipPath>
		<path clip-path="url(#SVGID_22_)" fill="#004B8D" d="M54.9,43.6c3.1,0,5.8,3.7,5.8,8.7S57.9,61,54.9,61c-3.1,0-5.8-3.7-5.8-8.7
			C49,47.3,51.8,43.6,54.9,43.6 M54.9,60.5c1.7,0,3.7-2.1,3.7-8.1c0-6-2-8.1-3.7-8.1c-1.7,0-3.7,2.1-3.7,8.1S53.2,60.5,54.9,60.5"/>
	</g>
	<g>
		<defs>
			<rect id="SVGID_23_" y="39.5" width="176" height="36.9"/>
		</defs>
		<clipPath id="SVGID_24_">
			<use xlink:href="#SVGID_23_"  overflow="visible"/>
		</clipPath>
		<path clip-path="url(#SVGID_24_)" fill="#004B8D" d="M69.9,45.8c0-0.7-0.1-1-0.6-1.1c-0.7-0.2-1-0.2-1-0.4c0-0.2,0.2-0.3,0.6-0.3
			c0.5,0,0.9,0.1,1.9,0.1c1.3,0,1.5-0.1,2-0.1c0.3,0,0.4,0.1,0.4,0.2c0,0.3-0.4,0.4-1,0.5c-0.3,0.1-0.6,0.2-0.6,0.5V59
			c0,0.7,0.2,1,0.4,1.1c0.5,0.2,1,0.2,1,0.4c0,0.2-0.1,0.3-0.4,0.3c-0.4,0-0.9-0.1-1.9-0.1c-1.2,0-1.3,0.1-1.7,0.1
			c-0.6,0-0.7-0.1-0.7-0.3c0-0.2,0.2-0.2,0.7-0.3c0.6-0.2,0.7-0.3,0.7-1.1v-6.5c0-0.2-0.1-0.2-0.2-0.2H64c-0.2,0-0.2,0.1-0.2,0.3V59
			c0,0.7,0.3,1,0.7,1.1s0.8,0.1,0.8,0.4c0,0.2-0.1,0.3-0.5,0.3s-0.4-0.1-1.9-0.1c-1.5,0-1.6,0.1-2.1,0.1c-0.3,0-0.4-0.2-0.4-0.4
			c0-0.2,0.1-0.2,0.3-0.3c1.1-0.2,1.2-0.4,1.2-1.2V45.7c0-0.7-0.1-0.8-0.4-0.9c-0.7-0.3-1-0.2-1-0.5c0-0.2,0.1-0.3,0.5-0.3
			c0.3,0,1.2,0.1,1.8,0.1c0.7,0,1.4-0.1,1.8-0.1s0.5,0.1,0.5,0.3c0,0.3-0.2,0.3-0.8,0.4c-0.2,0-0.5,0.2-0.5,0.7v5.8
			c0,0.2,0.1,0.3,0.2,0.3h5.5c0.2,0,0.2-0.1,0.2-0.3L69.9,45.8L69.9,45.8z"/>
	</g>
	<g>
		<defs>
			<rect id="SVGID_25_" y="39.5" width="176" height="36.9"/>
		</defs>
		<clipPath id="SVGID_26_">
			<use xlink:href="#SVGID_25_"  overflow="visible"/>
		</clipPath>
		<path clip-path="url(#SVGID_26_)" fill="#004B8D" d="M85,60.5c0,0.7,0,0.7-0.3,0.7c-0.3,0-0.2-0.3-4.3-7.7
			c-3.6-6.6-3.6-7.1-3.8-7.1c-0.1,0.1-0.1,0.1-0.1,0.7v9.4c0,2.6,0.2,3.5,0.8,3.7c0.7,0.2,1.3,0,1.3,0.5c0,0.2-0.2,0.2-0.4,0.2
			c-0.3,0-0.3-0.1-1.8-0.1c-1.3,0-1.7,0.1-2.2,0.1c-0.2,0-0.3-0.1-0.3-0.2c0-0.3,0.8-0.3,1.2-0.5c0.5-0.2,0.6-0.7,0.6-1.6V46.1
			c0-0.9-0.1-1.4-0.6-1.5c-0.7-0.1-0.9-0.1-0.9-0.4c0-0.2,0.3-0.3,0.6-0.3c0.5,0,1.4,0.1,1.8,0.1H77c0.4,0,0.5,0.5,0.8,1.2l3.8,7.3
			c2.2,4.2,2.3,4.3,2.4,4.3c0.1,0,0.2-0.2,0.2-0.3v-9.8c0-1.5-0.3-1.9-0.9-2c-0.5-0.1-0.9-0.2-0.9-0.4c0-0.2,0.2-0.3,0.3-0.3
			c0.3,0,0.7,0.1,1.8,0.1c0.6,0,1.1-0.1,1.7-0.1c0.3,0,0.4,0.1,0.4,0.3c0,0.3-0.2,0.3-0.9,0.4C85.1,44.7,85,45.1,85,46
			C85,46,85,60.5,85,60.5z"/>
	</g>
	<g>
		<defs>
			<rect id="SVGID_27_" y="39.5" width="176" height="36.9"/>
		</defs>
		<clipPath id="SVGID_28_">
			<use xlink:href="#SVGID_27_"  overflow="visible"/>
		</clipPath>
		<path clip-path="url(#SVGID_28_)" fill="#004B8D" d="M90.5,61.1c-1.5,0-2.6-0.3-3.1-0.7c-0.3-0.2-0.5-0.5-0.5-2.9
			c0-1.8,0.1-1.9,0.3-1.9c0.3,0,0.3,0.2,0.3,0.4c0.7,3.2,1.8,4.4,3.4,4.4c1.7,0,3-1.6,3-3.6c0-4.7-7-4.4-7-9.3c0-2.2,2-4,4.5-4
			c1.1,0,2.6,0.4,2.9,0.8c0.2,0.2,0.2,0.3,0.2,2.5c0,1.4,0,1.4-0.2,1.4c-0.3,0-0.3-0.4-0.4-1c-0.7-2.3-1.7-3.2-2.8-3.2
			c-1.3,0-2.5,1.2-2.5,2.6c0,4.7,7.1,4,7.1,9.3C95.6,59.1,93.4,61.1,90.5,61.1"/>
	</g>
	<g>
		<defs>
			<rect id="SVGID_29_" y="39.5" width="176" height="36.9"/>
		</defs>
		<clipPath id="SVGID_30_">
			<use xlink:href="#SVGID_29_"  overflow="visible"/>
		</clipPath>
		<path clip-path="url(#SVGID_30_)" fill="#004B8D" d="M110.1,45.8c0-0.7-0.1-1-0.6-1.1c-0.7-0.1-1-0.1-1-0.4c0-0.2,0.2-0.3,0.6-0.3
			c0.5,0,0.9,0.1,1.9,0.1c1.3,0,1.5-0.1,2-0.1c0.3,0,0.4,0.1,0.4,0.2c0,0.3-0.4,0.4-1,0.5c-0.3,0.1-0.6,0.2-0.6,0.5V59
			c0,0.7,0.2,1,0.4,1.1c0.5,0.2,1,0.2,1,0.4c0,0.2-0.1,0.3-0.4,0.3c-0.4,0-0.9-0.1-1.9-0.1c-1.2,0-1.3,0.1-1.7,0.1
			c-0.6,0-0.7-0.1-0.7-0.3c0-0.2,0.2-0.2,0.7-0.3c0.6-0.2,0.7-0.3,0.7-1.1v-6.5c0-0.2-0.1-0.2-0.2-0.2h-5.5c-0.2,0-0.2,0.1-0.2,0.3
			V59c0,0.7,0.3,1,0.7,1.1s0.8,0.1,0.8,0.4c0,0.2-0.1,0.3-0.5,0.3s-0.4-0.1-1.9-0.1s-1.6,0.1-2.1,0.1c-0.3,0-0.4-0.2-0.4-0.4
			c0-0.2,0.1-0.2,0.3-0.3c1.1-0.2,1.2-0.4,1.2-1.2V45.7c0-0.7-0.1-0.8-0.4-0.9c-0.9-0.2-1.2-0.1-1.2-0.4c0-0.2,0.1-0.3,0.5-0.3
			s1.2,0.1,1.8,0.1c0.7,0,1.4-0.1,1.8-0.1s0.5,0.1,0.5,0.3c0,0.3-0.2,0.3-0.8,0.4c-0.4,0.1-0.7,0.2-0.7,0.7v5.6
			c0,0.2,0.1,0.3,0.2,0.3h5.5c0.2,0,0.2-0.1,0.2-0.3v-5.4H110.1z"/>
	</g>
	<g>
		<defs>
			<rect id="SVGID_31_" y="39.5" width="176" height="36.9"/>
		</defs>
		<clipPath id="SVGID_32_">
			<use xlink:href="#SVGID_31_"  overflow="visible"/>
		</clipPath>
		<path clip-path="url(#SVGID_32_)" fill="#004B8D" d="M119.4,43.6c3.1,0,5.8,3.7,5.8,8.7s-2.8,8.7-5.8,8.7c-3.1,0-5.8-3.7-5.8-8.7
			S116.3,43.6,119.4,43.6 M119.4,60.5c1.7,0,3.7-2.1,3.7-8.1c0-6-2-8.1-3.7-8.1s-3.7,2.1-3.7,8.1S117.6,60.5,119.4,60.5"/>
	</g>
	<g>
		<defs>
			<rect id="SVGID_33_" y="39.5" width="176" height="36.9"/>
		</defs>
		<clipPath id="SVGID_34_">
			<use xlink:href="#SVGID_33_"  overflow="visible"/>
		</clipPath>
		<path clip-path="url(#SVGID_34_)" fill="#004B8D" d="M126.7,45.9c0-0.9-0.2-1.2-0.7-1.2c-0.8-0.1-1-0.1-1-0.4
			c0-0.2,0.1-0.3,0.4-0.3c0.7,0,1.5,0.1,2.2,0.1c1,0,2.1-0.1,3.1-0.1c2.7,0,4.9,1.7,4.9,4.8c0,2.7-2.2,4.4-4.7,4.4
			c-1.3,0-1.7-0.2-2.1-0.2c-0.2,0-0.2,0.2-0.2,0.4v5.3c0,0.9,0.2,1.2,0.7,1.3c0.9,0.2,1.3,0.1,1.3,0.4c0,0.2-0.2,0.3-0.5,0.3
			c-0.4,0-0.9-0.1-2.4-0.1c-1.6,0-1.8,0.1-2.2,0.1c-0.4,0-0.6-0.1-0.6-0.2c0-0.3,0.2-0.3,1.1-0.5c0.5-0.1,0.7-0.4,0.7-1.1
			L126.7,45.9L126.7,45.9z M128.5,51.5c0,0.4,0.4,1,1.6,1c2.3,0,3.6-1.6,3.6-3.9c0-2.4-1.2-4.1-3.7-4.1c-1.1,0-1.5,0.2-1.5,0.9V51.5
			z"/>
	</g>
	<g>
		<defs>
			<rect id="SVGID_35_" y="39.5" width="176" height="36.9"/>
		</defs>
		<clipPath id="SVGID_36_">
			<use xlink:href="#SVGID_35_"  overflow="visible"/>
		</clipPath>
		<path clip-path="url(#SVGID_36_)" fill="#004B8D" d="M139.1,58.5c0,1.2,0.1,1.4,1,1.6c0.5,0.1,0.6,0.2,0.6,0.3
			c0,0.2-0.2,0.3-0.7,0.3c-0.3,0-0.9-0.1-1.7-0.1c-1,0-1.4,0.1-1.9,0.1c-0.3,0-0.5-0.1-0.5-0.3s0.1-0.3,0.5-0.4c0.8-0.2,1-0.2,1-1.5
			V45.9c0-1-0.1-1.2-0.5-1.2c-0.7-0.2-1-0.2-1-0.5c0-0.2,0.2-0.3,0.4-0.3s0.5,0.1,2.1,0.1c1,0,1.5-0.1,1.8-0.1
			c0.3,0,0.4,0.1,0.4,0.3c0,0.3-0.2,0.2-0.9,0.4c-0.4,0.1-0.6,0.4-0.6,0.8v5c0,0.7,0,0.8,0.1,0.8c0,0,0.2-0.2,0.5-0.6
			c0.9-1.1,2.9-3.5,3.7-4.8c0.2-0.3,0.3-0.6,0.3-0.7c0-0.3-0.2-0.5-0.7-0.6c-0.4-0.1-0.7-0.2-0.7-0.3c0-0.2,0.2-0.3,0.5-0.3
			c0.4,0,1.2,0.1,1.9,0.1c0.7,0,1.4-0.1,1.7-0.1c0.4,0,0.6,0.1,0.6,0.3c0,0.3-0.2,0.2-0.7,0.3c-0.6,0.2-1.6,1-3,2.8
			c-1.9,2.4-2,2.6-2,2.8c0,0.2,0.3,0.5,3.7,7.2c1.2,2.5,1.4,2.5,1.8,2.7c0.3,0.2,0.7,0.1,0.7,0.4c0,0.2-0.1,0.3-0.5,0.3
			c-0.5,0-0.7-0.1-1.8-0.1c-1.5,0-1.7,0.1-2,0.1c-0.5,0-0.7-0.1-0.7-0.3c0-0.2,0.1-0.2,0.7-0.3c0.7-0.2,0.8-0.2,0.8-0.6
			s-0.1-0.5-1.2-2.7c-2.4-4.7-2.6-5-2.7-5c-0.2,0-0.9,0.8-0.9,1.2v5.5H139.1z"/>
	</g>
	<g>
		<defs>
			<rect id="SVGID_37_" y="39.5" width="176" height="36.9"/>
		</defs>
		<clipPath id="SVGID_38_">
			<use xlink:href="#SVGID_37_"  overflow="visible"/>
		</clipPath>
		<path clip-path="url(#SVGID_38_)" fill="#004B8D" d="M152,58.6c0,0.7,0.2,1.2,0.8,1.4c0.5,0.1,1.1,0.2,1.1,0.5
			c0,0.2-0.1,0.2-0.6,0.2c-0.2,0-0.3-0.1-2.2-0.1s-1.9,0.1-2.2,0.1c-0.3,0-0.5,0-0.5-0.3c0-0.3,0.5-0.3,0.9-0.4
			c0.8-0.2,0.9-0.3,0.9-1.2V45.6c0-0.7-0.2-0.9-0.7-1c-0.9-0.2-1.1,0-1.1-0.4c0-0.2,0.2-0.3,0.6-0.3c0.7,0,1.4,0.1,2.2,0.1
			c0.8,0,1.7-0.1,2.2-0.1c0.3,0,0.6,0.1,0.6,0.3c0,0.3-0.3,0.2-1.2,0.4c-0.6,0.1-0.7,0.4-0.7,1L152,58.6L152,58.6z"/>
	</g>
	<g>
		<defs>
			<rect id="SVGID_39_" y="39.5" width="176" height="36.9"/>
		</defs>
		<clipPath id="SVGID_40_">
			<use xlink:href="#SVGID_39_"  overflow="visible"/>
		</clipPath>
		<path clip-path="url(#SVGID_40_)" fill="#004B8D" d="M165.6,60.5c0,0.7,0,0.7-0.3,0.7c-0.3,0-0.2-0.3-4.3-7.7
			c-3.6-6.6-3.6-7.1-3.8-7.1c-0.2,0-0.2,0.1-0.2,0.6v9.4c0,2.6,0.2,3.5,0.8,3.7c0.7,0.2,1.3,0,1.3,0.5c0,0.2-0.2,0.2-0.4,0.2
			c-0.3,0-0.3-0.1-1.8-0.1c-1.3,0-1.7,0.1-2.2,0.1c-0.2,0-0.3-0.1-0.3-0.2c0-0.3,0.8-0.3,1.2-0.5c0.5-0.2,0.6-0.7,0.6-1.6V46.1
			c0-0.9-0.1-1.4-0.6-1.5c-0.7-0.1-0.9-0.1-0.9-0.4c0-0.2,0.4-0.3,0.6-0.3c0.5,0,1.4,0.1,1.8,0.1h0.5c0.4,0,0.5,0.5,0.8,1.2l3.8,7.3
			c2.2,4.2,2.3,4.3,2.4,4.3c0.1,0,0.2-0.2,0.2-0.3v-9.8c0-1.5-0.3-1.9-0.9-2c-0.5-0.1-0.9-0.2-0.9-0.4c0-0.2,0.2-0.3,0.3-0.3
			c0.3,0,0.7,0.1,1.8,0.1c0.6,0,1.1-0.1,1.7-0.1c0.3,0,0.4,0.1,0.4,0.3c0,0.3-0.2,0.3-0.9,0.4c-0.6,0.1-0.7,0.5-0.7,1.4L165.6,60.5
			L165.6,60.5z"/>
	</g>
	<g>
		<defs>
			<rect id="SVGID_41_" y="39.5" width="176" height="36.9"/>
		</defs>
		<clipPath id="SVGID_42_">
			<use xlink:href="#SVGID_41_"  overflow="visible"/>
		</clipPath>
		<path clip-path="url(#SVGID_42_)" fill="#004B8D" d="M170.9,61.1c-1.5,0-2.6-0.3-3.1-0.7c-0.3-0.2-0.5-0.5-0.5-2.9
			c0-1.8,0.1-1.9,0.3-1.9c0.3,0,0.3,0.2,0.3,0.4c0.7,3.2,1.8,4.4,3.4,4.4c1.7,0,3-1.6,3-3.6c0-4.7-7-4.4-7-9.3c0-2.2,2-4,4.5-4
			c1.1,0,2.6,0.4,2.9,0.8c0.2,0.2,0.2,0.3,0.2,2.5c0,1.4,0,1.4-0.2,1.4c-0.3,0-0.3-0.4-0.4-1c-0.7-2.3-1.7-3.2-2.8-3.2
			c-1.3,0-2.5,1.2-2.5,2.6c0,4.7,7.1,4,7.1,9.3C176,59.1,173.8,61.1,170.9,61.1"/>
	</g>
	<g>
		<defs>
			<rect id="SVGID_43_" y="39.5" width="176" height="36.9"/>
		</defs>
		<clipPath id="SVGID_44_">
			<use xlink:href="#SVGID_43_"  overflow="visible"/>
		</clipPath>
		<path clip-path="url(#SVGID_44_)" fill="#FFFFFF" d="M32.7,69.3c-0.8-8.6-6.8-19.1-13.8-24c-6.8,4.8-13.1,15.5-13.9,24
			C12.7,72.9,25.6,72.6,32.7,69.3"/>
	</g>
	<g>
		<defs>
			<rect id="SVGID_45_" y="39.5" width="176" height="36.9"/>
		</defs>
		<clipPath id="SVGID_46_">
			<use xlink:href="#SVGID_45_"  overflow="visible"/>
		</clipPath>
		<path clip-path="url(#SVGID_46_)" fill="#8B9DC7" d="M5.2,69.3c1.6-9.6,6.6-17.9,13.7-23.8v-5.1C8.9,47.6,2,58.9,0.8,71.8
			L5.2,69.3z"/>
	</g>
	<g>
		<defs>
			<rect id="SVGID_47_" y="39.5" width="176" height="36.9"/>
		</defs>
		<clipPath id="SVGID_48_">
			<use xlink:href="#SVGID_47_"  overflow="visible"/>
		</clipPath>
		<path clip-path="url(#SVGID_48_)" fill="#004B8D" d="M5.2,69.3c9.1,3.4,18.8,3.2,27.4,0l4.3,2.5c-11.2,5.1-24.4,5.4-36.1,0
			L5.2,69.3z"/>
	</g>
	<g>
		<defs>
			<rect id="SVGID_49_" y="39.5" width="176" height="36.9"/>
		</defs>
		<clipPath id="SVGID_50_">
			<use xlink:href="#SVGID_49_"  overflow="visible"/>
		</clipPath>
		<path clip-path="url(#SVGID_50_)" fill="#4B6EA7" d="M32.6,69.3c-1.6-9.6-6.6-17.9-13.7-23.8v-5.1C29,47.6,35.8,58.8,37,71.7
			L32.6,69.3z"/>
	</g>
	<g>
		<defs>
			<rect id="SVGID_51_" y="39.5" width="176" height="36.9"/>
		</defs>
		<clipPath id="SVGID_52_">
			<use xlink:href="#SVGID_51_"  overflow="visible"/>
		</clipPath>
		<rect x="12.1" y="67.8" clip-path="url(#SVGID_52_)" fill="#004B8D" width="13.6" height="1.8"/>
	</g>
	<g>
		<defs>
			<rect id="SVGID_53_" y="39.5" width="176" height="36.9"/>
		</defs>
		<clipPath id="SVGID_54_">
			<use xlink:href="#SVGID_53_"  overflow="visible"/>
		</clipPath>
		<path clip-path="url(#SVGID_54_)" fill="#004B8D" d="M19.2,52.1h0.7c0,0,0.2-0.8-0.5-1.1c-0.2-0.7-0.1-2.1-0.2-2.7
			c0-0.2-0.2-0.6-0.2-0.6l0,0c-0.1,0-0.2,0.2-0.2,0.6c-0.1,0.6-0.1,1.9-0.2,2.7c-0.7,0.2-0.5,1.1-0.5,1.1h0.7H19.2z"/>
	</g>
	<g>
		<defs>
			<rect id="SVGID_55_" y="39.5" width="176" height="36.9"/>
		</defs>
		<clipPath id="SVGID_56_">
			<use xlink:href="#SVGID_55_"  overflow="visible"/>
		</clipPath>
		<path clip-path="url(#SVGID_56_)" fill="#004B8D" d="M18,59.7h-2.3c0.2-0.2,0.2-0.5,0.5-0.7c0.2-0.1,0.6-0.1,0.6-0.1
			c0.1-1.1-0.2-1.2,1-1.2v-3c-1.2-0.3-0.9-1.7,0.1-2c0.1-0.1,0.1-0.3,0.1-0.3h0.6h0.7h0.6c0.1,0.1,0.1,0.3,0.1,0.3
			c1,0.2,1.2,1.6,0.1,2.1v3c1.2-0.1,0.9,0.1,1,1.2c0,0,0.4-0.1,0.6,0.1c0.2,0.2,0.3,0.4,0.5,0.7h-2.3L18,59.7L18,59.7z"/>
	</g>
	<g>
		<defs>
			<rect id="SVGID_57_" y="39.5" width="176" height="36.9"/>
		</defs>
		<clipPath id="SVGID_58_">
			<use xlink:href="#SVGID_57_"  overflow="visible"/>
		</clipPath>
		<path clip-path="url(#SVGID_58_)" fill="#004B8D" d="M15.3,60.1h2c-0.7,1.2-1.5,4.2-1.5,6c-0.3,0.1-0.6,0.7-0.5,1H13
			c0-0.6-0.2-0.9-0.7-1.2C13.1,62.3,13.9,61.2,15.3,60.1"/>
	</g>
	<g>
		<defs>
			<rect id="SVGID_59_" y="39.5" width="176" height="36.9"/>
		</defs>
		<clipPath id="SVGID_60_">
			<use xlink:href="#SVGID_59_"  overflow="visible"/>
		</clipPath>
		<path clip-path="url(#SVGID_60_)" fill="#004B8D" d="M22.6,60.1h-2c0.7,1.2,1.5,4.2,1.5,6c0.3,0.1,0.6,0.7,0.5,1h2.3
			c0-0.6,0.2-0.9,0.7-1.2C24.7,62.3,23.9,61.2,22.6,60.1"/>
	</g>
	<g>
		<defs>
			<rect id="SVGID_61_" y="39.5" width="176" height="36.9"/>
		</defs>
		<clipPath id="SVGID_62_">
			<use xlink:href="#SVGID_61_"  overflow="visible"/>
		</clipPath>
		<path clip-path="url(#SVGID_62_)" fill="#004B8D" d="M19.3,67.1h1.3c0-0.7,0.4-1,0.8-1.1c0.1-1.2-0.1-3.4-1.3-5.9h-0.7h-0.9h-0.7
			c-1.2,2.5-1.5,4.7-1.3,5.9c0.4,0.1,0.8,0.3,0.8,1.1h1.3H19.3z"/>
	</g>
</g>
</svg>
