<?xml version="1.0" encoding="utf-8"?>
<!-- Generator: Adobe Illustrator 18.0.0, SVG Export Plug-In . SVG Version: 6.00 Build 0)  -->
<!DOCTYPE svg PUBLIC "-//W3C//DTD SVG 1.1//EN" "http://www.w3.org/Graphics/SVG/1.1/DTD/svg11.dtd">
<svg version="1.1" id="Layer_1" xmlns="http://www.w3.org/2000/svg" xmlns:xlink="http://www.w3.org/1999/xlink" x="0px" y="0px"
	 viewBox="0 0 75 75" enable-background="new 0 0 75 75" xml:space="preserve">
<g>
	<defs>
		<circle id="SVGID_1_" cx="37.5" cy="37.5" r="37.5"/>
	</defs>
	<clipPath id="SVGID_2_">
		<use xlink:href="#SVGID_1_"  overflow="visible"/>
	</clipPath>
	<g clip-path="url(#SVGID_2_)" enable-background="new    ">
		<g>
			<defs>
				<rect id="SVGID_3_" width="75" height="75"/>
			</defs>
			<clipPath id="SVGID_4_">
				<use xlink:href="#SVGID_3_"  overflow="visible"/>
			</clipPath>
			<g clip-path="url(#SVGID_4_)">
				<defs>
					<rect id="SVGID_5_" width="75" height="75"/>
				</defs>
				<clipPath id="SVGID_6_">
					<use xlink:href="#SVGID_5_"  overflow="visible"/>
				</clipPath>
				<rect x="-5" y="-5" clip-path="url(#SVGID_6_)" fill="#5684A9" width="85" height="85"/>
			</g>
			<g clip-path="url(#SVGID_4_)">
				<defs>
					<path id="SVGID_7_" d="M52.2,42.1H22.7V31.1h9.4l-3.8,5.2l3,2.2l4.4-6l1.8-2.5l1.8,2.5l4.4,6l3-2.2l-3.8-5.2h9.4V42.1z
						 M52.2,51.3H22.7v-3.7h29.6V51.3z M31.9,23.7c1,0,1.8,0.8,1.8,1.8c0,1-0.8,1.8-1.8,1.8c-1,0-1.8-0.8-1.8-1.8
						C30.1,24.5,30.9,23.7,31.9,23.7z M43,23.7c1,0,1.8,0.8,1.8,1.8c0,1-0.8,1.8-1.8,1.8c-1,0-1.8-0.8-1.8-1.8
						C41.2,24.5,42,23.7,43,23.7z M52.2,27.4h-4c0.2-0.6,0.3-1.2,0.3-1.8c0-3.1-2.5-5.5-5.5-5.5c-1.9,0-3.6,1-4.6,2.5l-0.9,1.2
						l-0.9-1.3c-1-1.5-2.7-2.5-4.6-2.5c-3.1,0-5.5,2.5-5.5,5.5c0,0.6,0.1,1.3,0.3,1.8h-4c-2.1,0-3.7,1.6-3.7,3.7l0,20.3
						c0,2,1.6,3.7,3.7,3.7h29.6c2.1,0,3.7-1.6,3.7-3.7V31.1C55.9,29,54.3,27.4,52.2,27.4z"/>
				</defs>
				<clipPath id="SVGID_8_">
					<use xlink:href="#SVGID_7_"  overflow="visible"/>
				</clipPath>
				<g clip-path="url(#SVGID_8_)">
					<defs>
						<rect id="SVGID_9_" width="75" height="75"/>
					</defs>
					<clipPath id="SVGID_10_">
						<use xlink:href="#SVGID_9_"  overflow="visible"/>
					</clipPath>
					<rect x="14" y="15" clip-path="url(#SVGID_10_)" fill="#FFFFFF" width="46.9" height="45"/>
				</g>
			</g>
		</g>
	</g>
</g>
</svg>
