<?xml version="1.0" encoding="utf-8"?>
<!-- Generator: Adobe Illustrator 18.1.1, SVG Export Plug-In . SVG Version: 6.00 Build 0)  -->
<svg version="1.1" id="Layer_1" xmlns="http://www.w3.org/2000/svg" xmlns:xlink="http://www.w3.org/1999/xlink" x="0px" y="0px"
	 viewBox="0 0 161 26" enable-background="new 0 0 161 26" xml:space="preserve">
<g>
	<defs>
		<rect id="SVGID_1_" x="-41" y="-19" width="1024" height="2623"/>
	</defs>
	<clipPath id="SVGID_2_">
		<use xlink:href="#SVGID_1_"  overflow="visible"/>
	</clipPath>
	<g clip-path="url(#SVGID_2_)">
		<defs>
			<path id="SVGID_3_" d="M10.3,5.9C9.6,4.9,8.4,4.5,7.2,4.5c-1.4,0-2.9,0.6-2.9,2.3c0,3.5,8.4,1.5,8.4,7.8c0,3.8-3,5.6-6.5,5.6
				c-2.2,0-4.3-0.7-5.8-2.4l2.4-2.3c0.8,1.2,2.1,1.8,3.5,1.8c1.4,0,3.1-0.8,3.1-2.4C9.4,11.1,1,13.3,1,7c0-3.6,3.2-5.3,6.5-5.3
				c1.8,0,3.7,0.5,5.1,1.8L10.3,5.9"/>
		</defs>
		<clipPath id="SVGID_4_">
			<use xlink:href="#SVGID_3_"  overflow="visible"/>
		</clipPath>
		<rect x="-4.6" y="-3.4" clip-path="url(#SVGID_4_)" fill="#30383D" width="22.2" height="28.5"/>
	</g>
</g>
<g>
	<defs>
		<rect id="SVGID_5_" x="-41" y="-19" width="1024" height="2623"/>
	</defs>
	<clipPath id="SVGID_6_">
		<use xlink:href="#SVGID_5_"  overflow="visible"/>
	</clipPath>
	<g clip-path="url(#SVGID_6_)">
		<defs>
			<path id="SVGID_7_" d="M14.3,10.3V7.8h2.5V4.3h3v3.5h3.3v2.5h-3.3v5.2c0,1.2,0.3,1.9,1.7,1.9c0.5,0,1.2-0.1,1.6-0.4v2.5
				c-0.6,0.3-1.7,0.4-2.4,0.4c-3.2,0-3.9-1.4-3.9-4.2v-5.5H14.3"/>
		</defs>
		<clipPath id="SVGID_8_">
			<use xlink:href="#SVGID_7_"  overflow="visible"/>
		</clipPath>
		<rect x="9.3" y="-0.7" clip-path="url(#SVGID_8_)" fill="#30383D" width="18.7" height="25.7"/>
	</g>
</g>
<g>
	<defs>
		<rect id="SVGID_9_" x="-41" y="-19" width="1024" height="2623"/>
	</defs>
	<clipPath id="SVGID_10_">
		<use xlink:href="#SVGID_9_"  overflow="visible"/>
	</clipPath>
	<g clip-path="url(#SVGID_10_)">
		<defs>
			<path id="SVGID_11_" d="M32.8,14.4h-0.6c-1.6,0-4.5,0.1-4.5,1.8c0,1.1,1.1,1.6,2.1,1.6c2,0,3-1.1,3-2.7V14.4z M33,18.1L33,18.1
				C32,19.4,30.6,20,29.1,20c-2.2,0-4.4-1.2-4.4-3.6c0-3.9,4.5-4.2,7.5-4.2H33v-0.3c0-1.5-1.1-2.2-2.7-2.2c-1.2,0-2.4,0.5-3.2,1.2
				l-1.6-1.6c1.3-1.3,3.2-1.9,5.1-1.9c5.1,0,5.1,3.7,5.1,5.4v6.9H33V18.1z"/>
		</defs>
		<clipPath id="SVGID_12_">
			<use xlink:href="#SVGID_11_"  overflow="visible"/>
		</clipPath>
		<rect x="19.7" y="2.5" clip-path="url(#SVGID_12_)" fill="#30383D" width="21" height="22.6"/>
	</g>
</g>
<g>
	<defs>
		<rect id="SVGID_13_" x="-41" y="-19" width="1024" height="2623"/>
	</defs>
	<clipPath id="SVGID_14_">
		<use xlink:href="#SVGID_13_"  overflow="visible"/>
	</clipPath>
	<g clip-path="url(#SVGID_14_)">
		<defs>
			<path id="SVGID_15_" d="M37.3,7.8h3.3l3.3,8.3H44l3-8.3h3.1l-5.7,14.5c-0.9,2.2-1.9,3.4-4.6,3.4c-0.8,0-1.5-0.1-2.3-0.3l0.4-2.7
				c0.5,0.2,1,0.3,1.5,0.3c1.5,0,1.9-0.5,2.4-1.8l0.6-1.4L37.3,7.8"/>
		</defs>
		<clipPath id="SVGID_16_">
			<use xlink:href="#SVGID_15_"  overflow="visible"/>
		</clipPath>
		<rect x="32.3" y="2.8" clip-path="url(#SVGID_16_)" fill="#30383D" width="22.8" height="27.9"/>
	</g>
</g>
<g>
	<defs>
		<rect id="SVGID_17_" x="-41" y="-19" width="1024" height="2623"/>
	</defs>
	<clipPath id="SVGID_18_">
		<use xlink:href="#SVGID_17_"  overflow="visible"/>
	</clipPath>
	<g clip-path="url(#SVGID_18_)">
		<defs>
			<path id="SVGID_19_" d="M52,7.8h3v12h-3V7.8z M53.5,1.9c1.1,0,1.9,0.8,1.9,1.8c0,1-0.8,1.8-1.9,1.8c-1.1,0-1.9-0.8-1.9-1.8
				C51.6,2.8,52.4,1.9,53.5,1.9z"/>
		</defs>
		<clipPath id="SVGID_20_">
			<use xlink:href="#SVGID_19_"  overflow="visible"/>
		</clipPath>
		<rect x="46.6" y="-3.1" clip-path="url(#SVGID_20_)" fill="#30383D" width="13.8" height="27.8"/>
	</g>
</g>
<g>
	<defs>
		<rect id="SVGID_21_" x="-41" y="-19" width="1024" height="2623"/>
	</defs>
	<clipPath id="SVGID_22_">
		<use xlink:href="#SVGID_21_"  overflow="visible"/>
	</clipPath>
	<g clip-path="url(#SVGID_22_)">
		<defs>
			<path id="SVGID_23_" d="M58.5,7.8h2.8v1.9h0c0.5-1.2,1.7-2.2,3.7-2.2c3.2,0,4.4,2.3,4.4,4.7v7.5h-3v-6.1c0-1.3-0.1-3.5-2.2-3.5
				c-2,0-2.7,1.4-2.7,3v6.5h-3V7.8"/>
		</defs>
		<clipPath id="SVGID_24_">
			<use xlink:href="#SVGID_23_"  overflow="visible"/>
		</clipPath>
		<rect x="53.5" y="2.5" clip-path="url(#SVGID_24_)" fill="#30383D" width="20.9" height="22.3"/>
	</g>
</g>
<g>
	<defs>
		<rect id="SVGID_25_" x="-41" y="-19" width="1024" height="2623"/>
	</defs>
	<clipPath id="SVGID_26_">
		<use xlink:href="#SVGID_25_"  overflow="visible"/>
	</clipPath>
	<g clip-path="url(#SVGID_26_)">
		<defs>
			<path id="SVGID_27_" d="M75.3,13.7c0,1.9,1.5,3.5,3.5,3.5c2.2,0,3.6-1.5,3.6-3.5c0-2.1-1.4-3.5-3.5-3.5
				C76.7,10.2,75.3,11.6,75.3,13.7z M85.2,7.8v10.9c0,4.3-2.1,7.1-6.8,7.1c-2.2,0-4.2-0.5-5.9-2l1.8-2.4c1.2,1.1,2.4,1.7,4.1,1.7
				c2.9,0,3.8-1.6,3.8-4v-0.9h0c-0.9,1.2-2.4,1.7-3.9,1.7c-3.6,0-6-2.7-6-6.1c0-3.5,2.2-6.3,5.9-6.3c1.7,0,3.2,0.6,4.1,2.1h0V7.8
				H85.2z"/>
		</defs>
		<clipPath id="SVGID_28_">
			<use xlink:href="#SVGID_27_"  overflow="visible"/>
		</clipPath>
		<rect x="67.3" y="2.5" clip-path="url(#SVGID_28_)" fill="#30383D" width="22.9" height="28.2"/>
	</g>
</g>
<g>
	<defs>
		<rect id="SVGID_29_" x="-41" y="-19" width="1024" height="2623"/>
	</defs>
	<clipPath id="SVGID_30_">
		<use xlink:href="#SVGID_29_"  overflow="visible"/>
	</clipPath>
	<g clip-path="url(#SVGID_30_)">
		<defs>
			<path id="SVGID_31_" d="M105,5.9c-0.7-0.9-1.9-1.4-3.1-1.4c-1.4,0-2.9,0.6-2.9,2.3c0,3.5,8.4,1.5,8.4,7.8c0,3.8-3,5.6-6.5,5.6
				c-2.2,0-4.3-0.7-5.8-2.4l2.4-2.3c0.8,1.2,2.1,1.8,3.5,1.8c1.4,0,3.1-0.8,3.1-2.4c0-3.9-8.4-1.6-8.4-7.9c0-3.6,3.2-5.3,6.5-5.3
				c1.8,0,3.7,0.5,5.1,1.8L105,5.9"/>
		</defs>
		<clipPath id="SVGID_32_">
			<use xlink:href="#SVGID_31_"  overflow="visible"/>
		</clipPath>
		<rect x="90.2" y="-3.4" clip-path="url(#SVGID_32_)" fill="#30383D" width="22.2" height="28.5"/>
	</g>
</g>
<g>
	<defs>
		<rect id="SVGID_33_" x="-41" y="-19" width="1024" height="2623"/>
	</defs>
	<clipPath id="SVGID_34_">
		<use xlink:href="#SVGID_33_"  overflow="visible"/>
	</clipPath>
	<g clip-path="url(#SVGID_34_)">
		<defs>
			<path id="SVGID_35_" d="M113.4,9.4L113.4,9.4c0.5-1,1.7-2,3.6-2c3.2,0,4.4,2.3,4.4,4.7v7.5h-3v-6.1c0-1.3-0.1-3.5-2.2-3.5
				c-2,0-2.7,1.4-2.7,3v6.5h-3V0.9h3V9.4"/>
		</defs>
		<clipPath id="SVGID_36_">
			<use xlink:href="#SVGID_35_"  overflow="visible"/>
		</clipPath>
		<rect x="105.5" y="-4.1" clip-path="url(#SVGID_36_)" fill="#30383D" width="20.9" height="28.8"/>
	</g>
</g>
<g>
	<defs>
		<rect id="SVGID_37_" x="-41" y="-19" width="1024" height="2623"/>
	</defs>
	<clipPath id="SVGID_38_">
		<use xlink:href="#SVGID_37_"  overflow="visible"/>
	</clipPath>
	<g clip-path="url(#SVGID_38_)">
		<defs>
			<path id="SVGID_39_" d="M132.1,14.4h-0.6c-1.6,0-4.5,0.1-4.5,1.8c0,1.1,1.1,1.6,2.1,1.6c2,0,3-1.1,3-2.7V14.4z M132.3,18.1
				L132.3,18.1c-0.9,1.3-2.3,1.9-3.9,1.9c-2.2,0-4.4-1.2-4.4-3.6c0-3.9,4.5-4.2,7.5-4.2h0.7v-0.3c0-1.5-1.1-2.2-2.7-2.2
				c-1.2,0-2.4,0.5-3.2,1.2l-1.6-1.6c1.3-1.3,3.2-1.9,5.1-1.9c5.1,0,5.1,3.7,5.1,5.4v6.9h-2.7V18.1z"/>
		</defs>
		<clipPath id="SVGID_40_">
			<use xlink:href="#SVGID_39_"  overflow="visible"/>
		</clipPath>
		<rect x="119" y="2.5" clip-path="url(#SVGID_40_)" fill="#30383D" width="21" height="22.6"/>
	</g>
</g>
<g>
	<defs>
		<rect id="SVGID_41_" x="-41" y="-19" width="1024" height="2623"/>
	</defs>
	<clipPath id="SVGID_42_">
		<use xlink:href="#SVGID_41_"  overflow="visible"/>
	</clipPath>
	<g clip-path="url(#SVGID_42_)">
		<defs>
			<path id="SVGID_43_" d="M138.3,7.8h3v1.9h0.1c0.6-1.4,2-2.2,3.5-2.2c0.4,0,0.7,0.1,1.1,0.2v2.9c-0.5-0.1-1-0.2-1.4-0.2
				c-2.8,0-3.2,2.4-3.2,3v6.4h-3V7.8"/>
		</defs>
		<clipPath id="SVGID_44_">
			<use xlink:href="#SVGID_43_"  overflow="visible"/>
		</clipPath>
		<rect x="133.3" y="2.5" clip-path="url(#SVGID_44_)" fill="#30383D" width="17.6" height="22.3"/>
	</g>
</g>
<g>
	<defs>
		<rect id="SVGID_45_" x="-41" y="-19" width="1024" height="2623"/>
	</defs>
	<clipPath id="SVGID_46_">
		<use xlink:href="#SVGID_45_"  overflow="visible"/>
	</clipPath>
	<g clip-path="url(#SVGID_46_)">
		<defs>
			<path id="SVGID_47_" d="M154.4,10.2c-2.2,0-3.5,1.7-3.5,3.6c0,1.9,1.3,3.6,3.5,3.6s3.5-1.7,3.5-3.6
				C158,11.9,156.6,10.2,154.4,10.2z M148,7.8h2.8v1.8h0.1c0.9-1.4,2.4-2.1,4.1-2.1c3.7,0,5.9,2.7,5.9,6.3c0,3.5-2.4,6.3-5.8,6.3
				c-2.2,0-3.4-1-4.1-1.8H151v7.2h-3V7.8z"/>
		</defs>
		<clipPath id="SVGID_48_">
			<use xlink:href="#SVGID_47_"  overflow="visible"/>
		</clipPath>
		<rect x="143" y="2.5" clip-path="url(#SVGID_48_)" fill="#30383D" width="22.9" height="27.9"/>
	</g>
</g>
</svg>
