<?xml version="1.0" encoding="utf-8"?>
<!-- Generator: Adobe Illustrator 18.1.1, SVG Export Plug-In . SVG Version: 6.00 Build 0)  -->
<svg version="1.1" xmlns="http://www.w3.org/2000/svg" xmlns:xlink="http://www.w3.org/1999/xlink" x="0px" y="0px"
	 viewBox="0 0 32 32" enable-background="new 0 0 32 32" xml:space="preserve">
<g id="search" display="none">
	<path display="inline" d="M11.9,20.2c-4.6,0-8.3-3.7-8.3-8.3c0-4.6,3.7-8.3,8.3-8.3s8.3,3.7,8.3,8.3C20.2,16.5,16.5,20.2,11.9,20.2
		z M23,20.2h-1.5L21,19.7c1.8-2,2.9-4.8,2.9-7.7C23.9,5.3,18.6,0,11.9,0S0,5.3,0,11.9s5.3,11.9,11.9,11.9c2.9,0,5.7-1.1,7.7-2.9
		l0.6,0.6V23l9.2,9.2l2.8-2.8L23,20.2z"/>
</g>
<g id="facebook">
	<path d="M12.9,31.8V17H9v-5.3h3.9V7.1c0-3.6,2.3-6.9,7.7-6.9c2.2,0,3.8,0.2,3.8,0.2l-0.1,5c0,0-1.6,0-3.4,0c-1.9,0-2.2,0.9-2.2,2.4
		c0,1.2,0-2.5,0,3.9h5.8L24.1,17h-5.5v14.8L12.9,31.8L12.9,31.8z"/>
</g>
<g id="twitter" display="none">
	<path display="inline" d="M31.7,6.3c-1.2,0.5-2.4,0.9-3.7,1c1.3-0.8,2.4-2.1,2.8-3.6c-1.2,0.7-2.6,1.3-4.1,1.6
		c-1.2-1.3-2.9-2-4.7-2c-3.6,0-6.4,2.9-6.4,6.4c0,0.5,0.1,1,0.2,1.5C10.4,10.9,5.7,8.3,2.5,4.4c-0.6,1-0.9,2.1-0.9,3.2
		c0,2.2,1.1,4.2,2.9,5.4c-1.1,0-2.1-0.3-2.9-0.8c0,0,0,0.1,0,0.1c0,3.1,2.2,5.7,5.2,6.3c-0.5,0.1-1.1,0.2-1.7,0.2
		c-0.4,0-0.8,0-1.2-0.1c0.8,2.6,3.2,4.4,6,4.5c-2.2,1.7-5,2.8-8,2.8c-0.5,0-1,0-1.5-0.1c2.9,1.8,6.2,2.9,9.9,2.9
		c11.9,0,18.3-9.8,18.3-18.3c0-0.3,0-0.6,0-0.8C29.8,8.7,30.9,7.5,31.7,6.3z"/>
</g>
<g id="google_plus" display="none">
	<g display="inline">
		<polygon fill-rule="evenodd" clip-rule="evenodd" fill="#5D5E5E" points="28.8,6.6 25.1,6.6 25.1,2.9 23.3,2.9 23.3,6.6 19.6,6.6 
			19.6,8.4 23.3,8.4 23.3,12.1 25.1,12.1 25.1,8.4 28.8,8.4 		"/>
		<path fill-rule="evenodd" clip-rule="evenodd" fill="#5D5E5E" d="M9.8,30.8c-3.6,0-6.3-2.3-6.3-5.1c0-2.7,3.1-5.1,6.7-5
			c0.8,0,1.6,0.1,2.4,0.4c2,1.4,3.6,2.2,4,3.8c0.1,0.3,0.1,0.6,0.1,1C16.7,28.6,14.9,30.8,9.8,30.8z M10.8,14.1
			C8.3,14,5.9,11.7,5.4,8.4C5,5.2,6.7,2.6,9.2,2.7c2.5,0.1,4.6,2.8,5.1,6C14.7,12,13.3,14.1,10.8,14.1z M16,19.3
			c-0.8-0.6-2.7-1.9-2.7-2.8c0-1,0.3-1.5,1.8-2.7c1.6-1.2,2.7-2.9,2.7-4.9c0-2.2-0.9-4.2-2.6-5.2h2.4l2-2.1h-9.1
			C5.9,1.5,2.1,5,2.1,8.7c0,3.9,2.5,6.9,6.9,6.9c0.3,0,0.6,0,0.9,0c-0.3,0.5-0.5,1.1-0.5,1.8c0,1.1,0.6,1.7,1.3,2.4
			c-0.5,0-1.1,0-1.7,0c-5.3,0-9,3.7-9,7.2c0,3.5,4.5,5.6,9.8,5.6c6.1,0,9.8-3.4,9.8-6.9C19.6,22.9,19,21.5,16,19.3z"/>
	</g>
</g>
<g id="carrot-down" display="none">
	<polygon display="inline" points="16,25 27.1,8.4 4.9,8.4 	"/>
</g>
</svg>
