<?xml version="1.0" encoding="utf-8"?>
<!-- Generator: Adobe Illustrator 18.1.1, SVG Export Plug-In . SVG Version: 6.00 Build 0)  -->
<svg version="1.1" xmlns="http://www.w3.org/2000/svg" xmlns:xlink="http://www.w3.org/1999/xlink" x="0px" y="0px"
	 viewBox="0 0 32 32" enable-background="new 0 0 32 32" xml:space="preserve">
<g id="search" display="none">
	<path display="inline" d="M12,20c-4.5,0-8.1-3.6-8.1-8.1c0-4.5,3.6-8.1,8.1-8.1S20,7.5,20,12C20,16.4,16.4,20,12,20z M22.7,20h-1.4
		l-0.5-0.5c1.8-2,2.9-4.7,2.9-7.5c0-6.5-5.2-11.7-11.7-11.7S0.3,5.5,0.3,12S5.5,23.6,12,23.6c2.9,0,5.6-1.1,7.5-2.9l0.5,0.5v1.4l9,9
		l2.7-2.7L22.7,20z"/>
</g>
<g id="facebook" display="none">
	<path display="inline" d="M12.9,31.8V17H9v-5.3h3.9V7.1c0-3.6,2.3-6.9,7.7-6.9c2.2,0,3.8,0.2,3.8,0.2l-0.1,5c0,0-1.6,0-3.4,0
		c-1.9,0-2.2,0.9-2.2,2.4c0,1.2,0-2.5,0,3.9h5.8L24.1,17h-5.5v14.8L12.9,31.8L12.9,31.8z"/>
</g>
<g id="twitter" display="none">
	<path display="inline" d="M31.7,6.3c-1.2,0.5-2.4,0.9-3.7,1c1.3-0.8,2.4-2.1,2.8-3.6c-1.2,0.7-2.6,1.3-4.1,1.6
		c-1.2-1.3-2.9-2-4.7-2c-3.6,0-6.4,2.9-6.4,6.4c0,0.5,0.1,1,0.2,1.5C10.4,10.9,5.7,8.3,2.5,4.4c-0.6,1-0.9,2.1-0.9,3.2
		c0,2.2,1.1,4.2,2.9,5.4c-1.1,0-2.1-0.3-2.9-0.8c0,0,0,0.1,0,0.1c0,3.1,2.2,5.7,5.2,6.3c-0.5,0.1-1.1,0.2-1.7,0.2
		c-0.4,0-0.8,0-1.2-0.1c0.8,2.6,3.2,4.4,6,4.5c-2.2,1.7-5,2.8-8,2.8c-0.5,0-1,0-1.5-0.1c2.9,1.8,6.2,2.9,9.9,2.9
		c11.9,0,18.3-9.8,18.3-18.3c0-0.3,0-0.6,0-0.8C29.8,8.7,30.9,7.5,31.7,6.3z"/>
</g>
<g id="google_plus" display="none">
	<g display="inline">
		<polygon fill-rule="evenodd" clip-rule="evenodd" fill="#5D5E5E" points="30.4,5.5 26.7,5.5 26.7,1.8 24.9,1.8 24.9,5.5 21.2,5.5 
			21.2,7.3 24.9,7.3 24.9,11 26.7,11 26.7,7.3 30.4,7.3 		"/>
		<path fill-rule="evenodd" clip-rule="evenodd" fill="#5D5E5E" d="M11.4,29.7c-3.6,0-6.3-2.3-6.3-5.1c0-2.7,3.1-5.1,6.7-5
			c0.8,0,1.6,0.1,2.4,0.4c2,1.4,3.6,2.2,4,3.8c0.1,0.3,0.1,0.6,0.1,1C18.3,27.6,16.5,29.7,11.4,29.7z M12.3,13
			C9.8,12.9,7.5,10.6,7,7.4c-0.4-3.3,1.2-5.8,3.7-5.7c2.5,0.1,4.6,2.8,5.1,6C16.3,11,14.8,13.1,12.3,13z M17.6,18.2
			c-0.8-0.6-2.7-1.9-2.7-2.8c0-1,0.3-1.5,1.8-2.7c1.6-1.2,2.7-2.9,2.7-4.9c0-2.2-0.9-4.2-2.6-5.2h2.4l2-2.1h-9.1
			c-4.6,0-8.5,3.4-8.5,7.2c0,3.9,2.5,6.9,6.9,6.9c0.3,0,0.6,0,0.9,0c-0.3,0.5-0.5,1.1-0.5,1.8c0,1.1,0.6,1.7,1.3,2.4
			c-0.5,0-1.1,0-1.7,0c-5.3,0-9,3.7-9,7.2c0,3.5,4.5,5.6,9.8,5.6c6.1,0,9.8-3.4,9.8-6.9C21.2,21.9,20.6,20.5,17.6,18.2z"/>
	</g>
</g>
<g id="carrot-down" display="none">
	<polygon display="inline" points="16.3,23 26.4,8.4 6.3,8.4 	"/>
</g>
<g id="Layer_6">
	<g>
		<path fill-rule="evenodd" clip-rule="evenodd" d="M20,15c2.3,1.1,5.6,0.3,8-2.1c2.9-2.9,3.5-7.1,1.2-9.3c-2.2-2.2-6.4-1.7-9.3,1.2
			c-2.4,2.4-3.2,5.7-2.1,8L3,27.7l2.1,2.1l10.5-10.5l10.5,10.5l2.1-2.1L17.8,17.2L20,15z M9.7,17.7l4.3-4.3L3.3,2.7
			c-2.4,2.4-2.4,6.2,0,8.6L9.7,17.7z"/>
	</g>
</g>
</svg>
